{
  "asset": {
    "version": "2.0",
    "generator": "Sketchup glTF Exporter v1.2.6 by Centaur"
  },
  "scene": 0,
  "scenes": [
    {
      "nodes": [
        0
      ]
    }
  ],
  "samplers": [
    {
    }
  ],
  "nodes": [
    {
      "name": "root",
      "mesh": 0
    }
  ],
  "materials": [
    {
      "pbrMetallicRoughness": {
        "baseColorTexture": {
          "index": 0
        },
        "metallicFactor": 0.1,
        "roughnessFactor": 0.9
      },
      "name": "Пластик, красный",
      "doubleSided": true
    },
    {
      "pbrMetallicRoughness": {
        "baseColorFactor": [
          0.2176,
          0.2176,
          0.2176,
          1.0
        ],
        "metallicFactor": 0.1,
        "roughnessFactor": 0.9
      },
      "name": "default material",
      "doubleSided": true
    },
    {
      "pbrMetallicRoughness": {
        "baseColorTexture": {
          "index": 1
        },
        "metallicFactor": 0.1,
        "roughnessFactor": 0.9
      },
      "name": "[Plastic Red]3",
      "doubleSided": true
    },
    {
      "pbrMetallicRoughness": {
        "baseColorTexture": {
          "index": 2
        },
        "metallicFactor": 0.1,
        "roughnessFactor": 0.9
      },
      "name": "[Plastic Red]2",
      "doubleSided": true
    },
    {
      "pbrMetallicRoughness": {
        "baseColorTexture": {
          "index": 3
        },
        "metallicFactor": 0.1,
        "roughnessFactor": 0.9
      },
      "name": "[Plastic Red]1",
      "doubleSided": true
    }
  ],
  "images": [
    {
      "bufferView": 0,
      "mimeType": "image/jpeg"
    },
    {
      "bufferView": 1,
      "mimeType": "image/jpeg"
    },
    {
      "bufferView": 2,
      "mimeType": "image/jpeg"
    },
    {
      "bufferView": 3,
      "mimeType": "image/jpeg"
    }
  ],
  "textures": [
    {
      "source": 0,
      "sampler": 0
    },
    {
      "source": 1,
      "sampler": 0
    },
    {
      "source": 2,
      "sampler": 0
    },
    {
      "source": 3,
      "sampler": 0
    }
  ],
  "meshes": [
    {
      "primitives": [
        {
          "attributes": {
            "POSITION": 2,
            "NORMAL": 3,
            "TEXCOORD_0": 4
          },
          "indices": 5,
          "mode": 4,
          "material": 0
        },
        {
          "attributes": {
            "POSITION": 0,
            "NORMAL": 1
          },
          "indices": 6,
          "mode": 4,
          "material": 1
        },
        {
          "attributes": {
            "POSITION": 2,
            "NORMAL": 3,
            "TEXCOORD_0": 4
          },
          "indices": 7,
          "mode": 4,
          "material": 2
        },
        {
          "attributes": {
            "POSITION": 2,
            "NORMAL": 3,
            "TEXCOORD_0": 4
          },
          "indices": 8,
          "mode": 4,
          "material": 3
        },
        {
          "attributes": {
            "POSITION": 2,
            "NORMAL": 3,
            "TEXCOORD_0": 4
          },
          "indices": 9,
          "mode": 4,
          "material": 4
        }
      ]
    }
  ],
  "accessors": [
    {
      "bufferView": 4,
      "componentType": 5126,
      "count": 3,
      "type": "VEC3",
      "min": [
        0.1335000000000611,
        -0.6792060271908694,
        4.4470990136012025
      ],
      "max": [
        0.1335000000000611,
        -0.6715635709831537,
        4.449196914060417
      ]
    },
    {
      "bufferView": 5,
      "componentType": 5126,
      "count": 3,
      "type": "VEC3",
      "min": [
        1.0,
        7.498798913309288e-33,
        2.4492935982947064e-16
      ],
      "max": [
        1.0,
        7.498798913309288e-33,
        2.4492935982947064e-16
      ]
    },
    {
      "bufferView": 6,
      "componentType": 5126,
      "count": 1938,
      "type": "VEC3",
      "min": [
        0.13350000000006101,
        -1.0248810353858406,
        3.908166679708828
      ],
      "max": [
        0.15000000000006872,
        -0.5740788622847413,
        4.7813165056193405
      ]
    },
    {
      "bufferView": 7,
      "componentType": 5126,
      "count": 1938,
      "type": "VEC3",
      "min": [
        -1.0,
        -1.0,
        -1.0
      ],
      "max": [
        1.0,
        1.0,
        1.0
      ]
    },
    {
      "bufferView": 8,
      "componentType": 5126,
      "count": 1938,
      "type": "VEC2",
      "min": [
        -17.281551893123247,
        -13.986110617850608
      ],
      "max": [
        17.281551893123247,
        15.973454088013618
      ]
    },
    {
      "bufferView": 10,
      "componentType": 5123,
      "count": 1104,
      "type": "SCALAR"
    },
    {
      "bufferView": 9,
      "componentType": 5121,
      "count": 3,
      "type": "SCALAR"
    },
    {
      "bufferView": 10,
      "componentType": 5123,
      "count": 624,
      "type": "SCALAR",
      "byteOffset": 2208
    },
    {
      "bufferView": 10,
      "componentType": 5123,
      "count": 852,
      "type": "SCALAR",
      "byteOffset": 3456
    },
    {
      "bufferView": 10,
      "componentType": 5123,
      "count": 1224,
      "type": "SCALAR",
      "byteOffset": 5160
    }
  ],
  "bufferViews": [
    {
      "buffer": 0,
      "byteLength": 3540
    },
    {
      "buffer": 0,
      "byteOffset": 3540,
      "byteLength": 3533
    },
    {
      "buffer": 0,
      "byteOffset": 7073,
      "byteLength": 3556
    },
    {
      "buffer": 0,
      "byteOffset": 10629,
      "byteLength": 3447
    },
    {
      "buffer": 0,
      "byteOffset": 14076,
      "byteLength": 36,
      "target": 34962,
      "byteStride": 12
    },
    {
      "buffer": 0,
      "byteOffset": 14112,
      "byteLength": 36,
      "target": 34962,
      "byteStride": 12
    },
    {
      "buffer": 0,
      "byteOffset": 14148,
      "byteLength": 23256,
      "target": 34962,
      "byteStride": 12
    },
    {
      "buffer": 0,
      "byteOffset": 37404,
      "byteLength": 23256,
      "target": 34962,
      "byteStride": 12
    },
    {
      "buffer": 0,
      "byteOffset": 60664,
      "byteLength": 15504,
      "target": 34962,
      "byteStride": 8
    },
    {
      "buffer": 0,
      "byteOffset": 76168,
      "byteLength": 3,
      "target": 34963
    },
    {
      "buffer": 0,
      "byteOffset": 76172,
      "byteLength": 7608,
      "target": 34963
    }
  ],
  "buffers": [
    {
      "uri": "data:application/octet-stream;base64,",
      "byteLength": 83780
    }
  ]
}